<svg width="180" height="180" viewBox="0 0 180 180" fill="none" xmlns="http://www.w3.org/2000/svg">
<path d="M51.89 66.17C47.33 67.67 43.79 70.16 41.27 73.64C38.81 77.06 37.58 81.32 37.58 86.42C37.58 88.7 37.79 90.26 38.21 91.1C38.63 91.94 38.84 92.45 38.84 92.63C32.42 92.63 29.21 89.9 29.21 84.44C29.21 80.72 30.62 77 33.44 73.28C36.32 69.5 39.98 66.44 44.42 64.1C48.92 61.7 53.39 60.5 57.83 60.5C60.05 60.5 62.33 60.92 64.67 61.76L62.6 109.19L82.4 61.76H95.36L85.91 128H72.95L78.71 87.59L61.79 128H49.46L51.26 87.41L36.23 128H29.03L51.89 66.17ZM120.75 68.42H119.67C114.33 68.42 110.16 69.77 107.16 72.47C104.22 75.11 102.75 79.82 102.75 86.6C102.75 88.82 102.96 90.38 103.38 91.28C103.8 92.12 104.01 92.6 104.01 92.72C100.77 92.72 98.3398 92.06 96.7198 90.74C95.1598 89.36 94.3798 87.11 94.3798 83.99C94.3798 79.73 95.4298 75.86 97.5298 72.38C99.6298 68.84 102.96 65.99 107.52 63.83C112.14 61.67 117.99 60.59 125.07 60.59C129.03 60.59 133.29 60.95 137.85 61.67C141.69 62.33 145.11 62.66 148.11 62.66C151.95 62.66 155.43 62.03 158.55 60.77C158.43 64.67 157.44 67.55 155.58 69.41C153.72 71.27 150.96 72.2 147.3 72.2C145.38 72.2 143.46 72.05 141.54 71.75C139.62 71.45 136.89 70.94 133.35 70.22L120.93 128H107.97L120.75 68.42Z" fill="#03009D"/>
<path d="M134.891 158.638C137.305 162.329 136.284 167.313 132.394 169.39C115.625 178.345 96.3796 181.793 77.4209 179.117C55.8165 176.067 36.0554 165.273 21.8144 148.743C7.57343 132.213 -0.17773 111.072 0.00309074 89.2541C0.183912 67.4362 8.2844 46.4269 22.7974 30.135C37.3104 13.8432 57.2477 3.37819 78.8997 0.687157C100.552 -2.00387 122.444 3.2623 140.504 15.5059C158.563 27.7495 171.56 46.1367 177.076 67.2465C181.917 85.7711 180.707 105.285 173.742 122.973C172.126 127.077 167.293 128.665 163.349 126.692V126.692C159.404 124.719 157.851 119.932 159.388 115.798C164.666 101.603 165.485 86.0609 161.624 71.2843C157.087 53.9206 146.396 38.7964 131.541 28.7255C116.687 18.6547 98.6793 14.3231 80.8696 16.5365C63.0599 18.75 46.6607 27.3579 34.7231 40.7586C22.7856 54.1594 16.1226 71.4404 15.9739 89.3865C15.8251 107.333 22.2008 124.722 33.9146 138.318C45.6284 151.915 61.8827 160.794 79.6532 163.302C94.776 165.437 110.121 162.834 123.614 155.957C127.544 153.955 132.477 154.947 134.891 158.638V158.638Z" fill="#03009D"/>
</svg>
