<svg width="180" height="180" viewBox="0 0 180 180" fill="none" xmlns="http://www.w3.org/2000/svg">
<rect width="180" height="180" rx="50" fill="url(#paint0_linear_101_8)"/>
<path d="M22.2 119V69.77L20.4 60.77L22.29 55.37H43.26L60.9 86.87H62.7L77.28 55.37H98.79L99.69 60.77L98.79 69.41V119H78.9L79.17 111.35V86.24H78.18L74.76 95.69L68.28 110H53.88L43.26 86.24H42.36V93.53L43.26 119H22.2ZM124.888 119V72.47L106.888 73.37V55.28H163.138V73.37L144.688 72.47V104.6L145.678 113.6L144.688 119H124.888Z" fill="white"/>
<defs>
<linearGradient id="paint0_linear_101_8" x1="90" y1="0" x2="90" y2="180" gradientUnits="userSpaceOnUse">
<stop offset="0.557292" stop-color="#484848"/>
<stop offset="1" stop-opacity="0"/>
</linearGradient>
</defs>
</svg>
